<svg id="Layer_1" data-name="Layer 1" xmlns="http://www.w3.org/2000/svg" viewBox="0 0 1000 1000"><defs><style>.cls-1{fill:#151515;}</style></defs><path class="cls-1" d="M500,992.29c-271.67,0-492.69-221-492.69-492.69S228.29,6.91,500,6.91s492.7,221,492.7,492.69S771.63,992.29,500,992.29Zm0-966.08c-261,0-473.39,212.36-473.39,473.39S238.94,973,500,973,973.35,760.63,973.35,499.6,761,26.21,500,26.21Z"/><path class="cls-1" d="M500,597.69a9.63,9.63,0,0,1-6.82-2.83L342.31,444A9.65,9.65,0,0,1,356,430.38l144,144,144-144A9.65,9.65,0,1,1,657.61,444L506.78,594.86A9.63,9.63,0,0,1,500,597.69Z"/></svg>