<svg id="Layer_1" data-name="Layer 1" xmlns="http://www.w3.org/2000/svg" viewBox="0 0 1000 1000"><defs><style>.cls-1{fill:#d0e2f7;}.cls-2{fill:#f7f8f9;}.cls-3{fill:#c8cded;}.cls-4{fill:#9da1bf;}.cls-5{fill:#5e87ca;}</style></defs><rect class="cls-1" width="1000" height="1000" rx="170.62"/><rect class="cls-2" x="192.9" y="160.28" width="502.94" height="682.64"/><rect class="cls-3" x="263.56" y="388.38" width="364.96" height="225.32"/><rect class="cls-4" x="293.6" y="413.42" width="304.88" height="32.91"/><rect class="cls-4" x="293.6" y="460.66" width="243.69" height="32.91"/><rect class="cls-4" x="293.6" y="507.91" width="265.47" height="32.91"/><rect class="cls-4" x="293.6" y="555.16" width="189.25" height="32.91"/><rect class="cls-4" x="263.56" y="673.23" width="267.6" height="20.58"/><rect class="cls-4" x="263.56" y="717.18" width="135.19" height="20.58"/><rect class="cls-4" x="422.67" y="717.18" width="75.11" height="20.58"/><path class="cls-5" d="M643.68,467.8a145.9,145.9,0,1,0,145.9,145.9A145.9,145.9,0,0,0,643.68,467.8Zm0,243.68a97.78,97.78,0,1,1,97.78-97.78A97.78,97.78,0,0,1,643.68,711.48Z"/><circle class="cls-5" cx="854.34" cy="825.88" r="28.79"/><rect class="cls-5" x="763.18" y="671.08" width="57.58" height="179.92" transform="translate(-306.39 761.55) rotate(-43.89)"/><path class="cls-4" d="M265.77,303.48V303H297v.27c.26,10.09,5.84,16.38,15.23,16.38,9.74,0,14.87-6,14.87-17.53v-85h32.41v85.27c0,28.43-17.09,44.81-46.93,44.81C284,347.22,266.13,330.48,265.77,303.48Z"/><path class="cls-4" d="M376.8,281.07v-.17c0-40.65,24.44-66.06,63.05-66.06,38.87,0,63.13,25.41,63.13,66.06v.17c0,40.73-24.17,66.15-63.13,66.15C401.06,347.22,376.8,321.8,376.8,281.07Zm93.15,0v-.17c0-24.18-11.77-39.14-30.1-39.14-18.16,0-29.93,14.87-29.93,39.14v.17c0,24.26,11.69,39.23,29.93,39.23C458.44,320.3,470,305.07,470,281.07Z"/><path class="cls-4" d="M518.82,217.14h59.41c25.33,0,40.65,12.22,40.65,32.15v.17c0,14.44-11.07,26-25.59,27.81v.62c17.44.88,31.17,13.54,31.17,30.28v.18c0,22.22-17.27,36.57-44.63,36.57h-61Zm32.5,22.94v29.57h15.93c13,0,19.93-5.67,19.93-15.23v-.18c0-8.85-6.55-14.16-17.53-14.16Zm0,50V322h19.3c13.28,0,20.81-5.58,20.81-15.94v-.17c0-10.19-7.53-15.77-21.78-15.77Z"/></svg>