<svg id="Layer_1" data-name="Layer 1" xmlns="http://www.w3.org/2000/svg" viewBox="0 0 1000 1000"><defs><style>.cls-1{fill:#151515;}</style></defs><path class="cls-1" d="M500,6.91c271.67,0,492.69,221,492.69,492.69S771.64,992.29,500,992.29,7.27,771.27,7.27,499.6,228.3,6.91,500,6.91ZM500,973c261,0,473.38-212.36,473.38-473.38S761,26.21,500,26.21,26.57,238.56,26.57,499.6,239,973,500,973Z"/><path class="cls-1" d="M500,401.51a9.61,9.61,0,0,1,6.82,2.82L657.62,555.16A9.65,9.65,0,0,1,644,568.81l-144-144-144,144a9.65,9.65,0,0,1-13.64-13.65L493.14,404.33A9.65,9.65,0,0,1,500,401.51Z"/></svg>