<?xml version="1.0" encoding="utf-8"?>
<!-- Generator: Adobe Illustrator 25.4.1, SVG Export Plug-In . SVG Version: 6.00 Build 0)  -->
<svg version="1.1" id="Layer_1" xmlns="http://www.w3.org/2000/svg" xmlns:xlink="http://www.w3.org/1999/xlink" x="0px" y="0px"
	 viewBox="0 0 1446.4 358.93" style="enable-background:new 0 0 1446.4 358.93;" xml:space="preserve">
<style type="text/css">
	.st0{fill:#202020;}
</style>
<g>
	<path class="st0" d="M116.16,358.93H16.42L0,0h108.45l-5.97,223.62h1.99L205.46,0h81.59l8.46,223.62h1.99L384.55,0H493
		L324.35,358.93h-98.5l-11.44-204.21h-1.99L116.16,358.93z"/>
	<path class="st0" d="M700.69,358.93H447.47L523.84,0H776.8l-17.91,83.58h-147.5l-12.19,58.2h138.3l-16.17,75.62h-138.3
		l-12.44,57.96h147.75L700.69,358.93z"/>
	<path class="st0" d="M1001.16,358.93H747.95L824.31,0h252.97l-17.91,83.58h-147.5l-12.19,58.2h138.3l-16.17,75.62h-138.3
		l-12.44,57.96h147.75L1001.16,358.93z"/>
	<path class="st0" d="M1048.42,358.93L1124.78,0h79.6l97.75,197h1.99l41.54-197h100.74l-76.36,358.93h-79.6l-97.75-197h-1.99
		l-41.54,197H1048.42z"/>
</g>
</svg>
